<svg xmlns="http://www.w3.org/2000/svg" xmlns:xlink="http://www.w3.org/1999/xlink" width="1098" zoomAndPan="magnify" viewBox="0 0 823.5 555.000006" height="740" preserveAspectRatio="xMidYMid meet" version="1.0"><defs><clipPath id="e78d932e47"><path d="M 165.308594 96.265625 L 610 96.265625 L 610 295.421875 L 165.308594 295.421875 Z M 165.308594 96.265625 " clip-rule="nonzero"/></clipPath><clipPath id="3dfae4bd7c"><path d="M 194.523438 96.265625 L 580.472656 96.265625 C 588.222656 96.265625 595.652344 99.34375 601.132812 104.820312 C 606.613281 110.300781 609.691406 117.730469 609.691406 125.480469 L 609.691406 266.09375 C 609.691406 273.84375 606.613281 281.273438 601.132812 286.753906 C 595.652344 292.230469 588.222656 295.308594 580.472656 295.308594 L 194.523438 295.308594 C 186.773438 295.308594 179.34375 292.230469 173.863281 286.753906 C 168.386719 281.273438 165.308594 273.84375 165.308594 266.09375 L 165.308594 125.480469 C 165.308594 117.730469 168.386719 110.300781 173.863281 104.820312 C 179.34375 99.34375 186.773438 96.265625 194.523438 96.265625 " clip-rule="nonzero"/></clipPath><clipPath id="36a28d124f"><path d="M 165.308594 314.375 L 610 314.375 L 610 513.53125 L 165.308594 513.53125 Z M 165.308594 314.375 " clip-rule="nonzero"/></clipPath><clipPath id="697b92ff3e"><path d="M 194.523438 314.375 L 580.472656 314.375 C 588.222656 314.375 595.652344 317.453125 601.132812 322.929688 C 606.613281 328.410156 609.691406 335.839844 609.691406 343.589844 L 609.691406 484.203125 C 609.691406 491.949219 606.613281 499.382812 601.132812 504.859375 C 595.652344 510.339844 588.222656 513.417969 580.472656 513.417969 L 194.523438 513.417969 C 186.773438 513.417969 179.34375 510.339844 173.863281 504.859375 C 168.386719 499.382812 165.308594 491.949219 165.308594 484.203125 L 165.308594 343.589844 C 165.308594 335.839844 168.386719 328.410156 173.863281 322.929688 C 179.34375 317.453125 186.773438 314.375 194.523438 314.375 " clip-rule="nonzero"/></clipPath><clipPath id="f5f0bd2d3f"><path d="M 630.269531 314.375 L 822.511719 314.375 L 822.511719 513.53125 L 630.269531 513.53125 Z M 630.269531 314.375 " clip-rule="nonzero"/></clipPath><clipPath id="bd87339108"><path d="M 659.484375 314.375 L 793.792969 314.375 C 801.542969 314.375 808.972656 317.453125 814.453125 322.929688 C 819.929688 328.410156 823.007812 335.839844 823.007812 343.589844 L 823.007812 484.203125 C 823.007812 491.949219 819.929688 499.382812 814.453125 504.859375 C 808.972656 510.339844 801.542969 513.417969 793.792969 513.417969 L 659.484375 513.417969 C 651.734375 513.417969 644.304688 510.339844 638.824219 504.859375 C 633.347656 499.382812 630.269531 491.949219 630.269531 484.203125 L 630.269531 343.589844 C 630.269531 335.839844 633.347656 328.410156 638.824219 322.929688 C 644.304688 317.453125 651.734375 314.375 659.484375 314.375 " clip-rule="nonzero"/></clipPath><clipPath id="f706d73731"><path d="M 630.269531 96.265625 L 822.511719 96.265625 L 822.511719 295.421875 L 630.269531 295.421875 Z M 630.269531 96.265625 " clip-rule="nonzero"/></clipPath><clipPath id="0058f05ebb"><path d="M 659.484375 96.265625 L 793.792969 96.265625 C 801.542969 96.265625 808.972656 99.34375 814.453125 104.820312 C 819.929688 110.300781 823.007812 117.730469 823.007812 125.480469 L 823.007812 266.09375 C 823.007812 273.84375 819.929688 281.273438 814.453125 286.753906 C 808.972656 292.230469 801.542969 295.308594 793.792969 295.308594 L 659.484375 295.308594 C 651.734375 295.308594 644.304688 292.230469 638.824219 286.753906 C 633.347656 281.273438 630.269531 273.84375 630.269531 266.09375 L 630.269531 125.480469 C 630.269531 117.730469 633.347656 110.300781 638.824219 104.820312 C 644.304688 99.34375 651.734375 96.265625 659.484375 96.265625 " clip-rule="nonzero"/></clipPath><clipPath id="d85e90a31d"><path d="M 164.507812 35.855469 L 395.925781 35.855469 L 395.925781 64.621094 L 164.507812 64.621094 Z M 164.507812 35.855469 " clip-rule="nonzero"/></clipPath><clipPath id="a31328fdc9"><path d="M 794.246094 35.855469 L 822.511719 35.855469 L 822.511719 64.621094 L 794.246094 64.621094 Z M 794.246094 35.855469 " clip-rule="nonzero"/></clipPath><clipPath id="e8454c5e4d"><path d="M 655.824219 344.136719 L 723 344.136719 L 723 414 L 655.824219 414 Z M 655.824219 344.136719 " clip-rule="nonzero"/></clipPath><clipPath id="497a5f23e6"><path d="M 657 351 L 797.402344 351 L 797.402344 490.960938 L 657 490.960938 Z M 657 351 " clip-rule="nonzero"/></clipPath><clipPath id="4e1c224829"><path d="M 690 221 L 703 221 L 703 245.976562 L 690 245.976562 Z M 690 221 " clip-rule="nonzero"/></clipPath><clipPath id="69232fd51a"><path d="M 666 208 L 680 208 L 680 245.976562 L 666 245.976562 Z M 666 208 " clip-rule="nonzero"/></clipPath><clipPath id="d4d435fc94"><path d="M 713 197 L 727 197 L 727 245.976562 L 713 245.976562 Z M 713 197 " clip-rule="nonzero"/></clipPath><clipPath id="38c1035088"><path d="M 737 208 L 751 208 L 751 245.976562 L 737 245.976562 Z M 737 208 " clip-rule="nonzero"/></clipPath><clipPath id="fcd14baf07"><path d="M 760 170 L 774 170 L 774 245.976562 L 760 245.976562 Z M 760 170 " clip-rule="nonzero"/></clipPath><clipPath id="a16ca91ea0"><path d="M 784 151 L 797.402344 151 L 797.402344 245.976562 L 784 245.976562 Z M 784 151 " clip-rule="nonzero"/></clipPath><clipPath id="f3c6bb140e"><path d="M 655.824219 148 L 780 148 L 780 214 L 655.824219 214 Z M 655.824219 148 " clip-rule="nonzero"/></clipPath><clipPath id="6c396a307b"><path d="M 772 145.597656 L 784 145.597656 L 784 158 L 772 158 Z M 772 145.597656 " clip-rule="nonzero"/></clipPath><clipPath id="61bc361f40"><path d="M 8.785156 158.195312 L 126.148438 158.195312 L 126.148438 186.957031 L 8.785156 186.957031 Z M 8.785156 158.195312 " clip-rule="nonzero"/></clipPath><clipPath id="3c0727f9a2"><path d="M 8.785156 215.078125 L 126.148438 215.078125 L 126.148438 243.839844 L 8.785156 243.839844 Z M 8.785156 215.078125 " clip-rule="nonzero"/></clipPath><clipPath id="38a19ec59c"><path d="M 8.785156 264.726562 L 126.148438 264.726562 L 126.148438 293.488281 L 8.785156 293.488281 Z M 8.785156 264.726562 " clip-rule="nonzero"/></clipPath><clipPath id="c8803d28eb"><path d="M 8.785156 314.375 L 126.148438 314.375 L 126.148438 343.136719 L 8.785156 343.136719 Z M 8.785156 314.375 " clip-rule="nonzero"/></clipPath><clipPath id="e106800373"><path d="M 8.785156 378.273438 L 126.148438 378.273438 L 126.148438 407.035156 L 8.785156 407.035156 Z M 8.785156 378.273438 " clip-rule="nonzero"/></clipPath><clipPath id="35891f154b"><path d="M 8.785156 427.835938 L 126.148438 427.835938 L 126.148438 456.601562 L 8.785156 456.601562 Z M 8.785156 427.835938 " clip-rule="nonzero"/></clipPath><clipPath id="c836fa8722"><path d="M 3.484375 493.746094 L 32.246094 493.746094 L 32.246094 522.507812 L 3.484375 522.507812 Z M 3.484375 493.746094 " clip-rule="nonzero"/></clipPath><clipPath id="a47670d237"><path d="M 40.4375 493.746094 L 126 493.746094 L 126 522.507812 L 40.4375 522.507812 Z M 40.4375 493.746094 " clip-rule="nonzero"/></clipPath><clipPath id="d755a86422"><path d="M 0.492188 31.832031 L 134.445312 31.832031 L 134.445312 80.585938 L 0.492188 80.585938 Z M 0.492188 31.832031 " clip-rule="nonzero"/></clipPath><clipPath id="7aee4f80db"><path d="M 191.507812 113 L 470.925781 113 L 470.925781 279.273438 L 191.507812 279.273438 Z M 191.507812 113 " clip-rule="nonzero"/></clipPath><clipPath id="9ca6a3b269"><path d="M 233 468 L 369 468 L 369 493.9375 L 233 493.9375 Z M 233 468 " clip-rule="nonzero"/></clipPath><clipPath id="4b21f00464"><path d="M 192 471 L 227 471 L 227 493.9375 L 192 493.9375 Z M 192 471 " clip-rule="nonzero"/></clipPath></defs><g clip-path="url(#e78d932e47)"><g clip-path="url(#3dfae4bd7c)"><path fill="#f2f2f5" d="M 165.308594 96.265625 L 609.628906 96.265625 L 609.628906 295.421875 L 165.308594 295.421875 Z M 165.308594 96.265625 " fill-opacity="1" fill-rule="nonzero"/></g></g><g clip-path="url(#36a28d124f)"><g clip-path="url(#697b92ff3e)"><path fill="#f2f2f5" d="M 165.308594 314.375 L 609.628906 314.375 L 609.628906 513.53125 L 165.308594 513.53125 Z M 165.308594 314.375 " fill-opacity="1" fill-rule="nonzero"/></g></g><g clip-path="url(#f5f0bd2d3f)"><g clip-path="url(#bd87339108)"><path fill="#f2f2f5" d="M 630.269531 314.375 L 822.851562 314.375 L 822.851562 513.53125 L 630.269531 513.53125 Z M 630.269531 314.375 " fill-opacity="1" fill-rule="nonzero"/></g></g><g clip-path="url(#f706d73731)"><g clip-path="url(#0058f05ebb)"><path fill="#f2f2f5" d="M 630.269531 96.265625 L 822.851562 96.265625 L 822.851562 295.421875 L 630.269531 295.421875 Z M 630.269531 96.265625 " fill-opacity="1" fill-rule="nonzero"/></g></g><g clip-path="url(#d85e90a31d)"><path fill="#f2f2f5" d="M 164.507812 35.855469 L 395.871094 35.855469 L 395.871094 64.777344 L 164.507812 64.777344 Z M 164.507812 35.855469 " fill-opacity="1" fill-rule="nonzero"/></g><g clip-path="url(#a31328fdc9)"><path fill="#e4e4eb" d="M 794.246094 35.855469 L 823.167969 35.855469 L 823.167969 64.777344 L 794.246094 64.777344 Z M 794.246094 35.855469 " fill-opacity="1" fill-rule="nonzero"/></g><g clip-path="url(#e8454c5e4d)"><path fill="#e4e4eb" d="M 700.644531 347.546875 C 693.617188 349.828125 687.113281 353.230469 681.265625 357.484375 C 675.359375 361.789062 670.167969 366.980469 665.875 372.890625 C 661.609375 378.746094 658.222656 385.257812 655.9375 392.289062 L 722.167969 413.824219 L 722.167969 344.121094 C 714.648438 344.121094 707.429688 345.347656 700.644531 347.546875 " fill-opacity="1" fill-rule="nonzero"/></g><g clip-path="url(#497a5f23e6)"><path fill="#d8d8d8" d="M 793.808594 399.726562 C 791.53125 392.695312 788.132812 386.179688 783.878906 380.328125 C 779.578125 374.417969 774.382812 369.222656 768.476562 364.921875 C 762.636719 360.667969 756.125 357.265625 749.09375 354.984375 C 742.320312 352.777344 735.097656 351.558594 727.582031 351.558594 L 727.582031 421.261719 L 661.351562 399.726562 C 659.152344 406.511719 657.925781 413.738281 657.925781 421.261719 C 657.925781 428.78125 659.152344 436.007812 661.351562 442.796875 C 663.636719 449.820312 667.03125 456.335938 671.292969 462.191406 C 675.589844 468.101562 680.773438 473.292969 686.679688 477.59375 C 692.53125 481.859375 699.039062 485.25 706.0625 487.535156 C 712.847656 489.738281 720.070312 490.964844 727.582031 490.964844 C 735.097656 490.964844 742.320312 489.738281 749.09375 487.535156 C 756.125 485.25 762.636719 481.859375 768.476562 477.59375 C 774.382812 473.292969 779.578125 468.101562 783.878906 462.191406 C 788.132812 456.335938 791.53125 449.820312 793.808594 442.796875 C 796.007812 436.007812 797.234375 428.78125 797.234375 421.261719 C 797.234375 413.738281 796.007812 406.511719 793.808594 399.726562 " fill-opacity="1" fill-rule="nonzero"/></g><g clip-path="url(#4e1c224829)"><path fill="#d8d8d8" d="M 702.933594 245.957031 L 690.054688 245.957031 L 690.054688 221.1875 L 702.933594 221.1875 L 702.933594 245.957031 " fill-opacity="1" fill-rule="nonzero"/></g><path fill="#e4e4eb" d="M 667.238281 194.65625 C 665.898438 197.820312 667.375 201.46875 670.535156 202.808594 C 673.695312 204.148438 677.34375 202.675781 678.683594 199.511719 C 680.023438 196.351562 678.550781 192.703125 675.390625 191.363281 C 672.230469 190.019531 668.578125 191.496094 667.238281 194.65625 " fill-opacity="1" fill-rule="nonzero"/><path fill="#e4e4eb" d="M 690.773438 208.855469 C 689.433594 212.011719 690.910156 215.664062 694.066406 217.003906 C 697.230469 218.34375 700.878906 216.871094 702.21875 213.707031 C 703.558594 210.546875 702.082031 206.898438 698.921875 205.558594 C 695.761719 204.214844 692.113281 205.691406 690.773438 208.855469 " fill-opacity="1" fill-rule="nonzero"/><path fill="#e4e4eb" d="M 714.308594 186.050781 C 712.96875 189.210938 714.445312 192.859375 717.605469 194.203125 C 720.765625 195.542969 724.414062 194.066406 725.753906 190.90625 C 727.09375 187.742188 725.617188 184.09375 722.457031 182.753906 C 719.296875 181.414062 715.648438 182.886719 714.308594 186.050781 " fill-opacity="1" fill-rule="nonzero"/><path fill="#e4e4eb" d="M 737.84375 191.96875 C 736.5 195.132812 737.976562 198.78125 741.136719 200.121094 C 744.300781 201.464844 747.945312 199.988281 749.289062 196.824219 C 750.625 193.664062 749.152344 190.015625 745.992188 188.675781 C 742.832031 187.332031 739.183594 188.808594 737.84375 191.96875 " fill-opacity="1" fill-rule="nonzero"/><path fill="#e4e4eb" d="M 760.488281 154.640625 C 759.148438 157.800781 760.625 161.453125 763.785156 162.792969 C 766.945312 164.132812 770.59375 162.65625 771.933594 159.496094 C 773.273438 156.335938 771.796875 152.6875 768.640625 151.34375 C 765.480469 150.003906 761.828125 151.480469 760.488281 154.640625 " fill-opacity="1" fill-rule="nonzero"/><g clip-path="url(#69232fd51a)"><path fill="#d8d8d8" d="M 679.402344 245.957031 L 666.523438 245.957031 L 666.523438 208.117188 L 679.402344 208.117188 L 679.402344 245.957031 " fill-opacity="1" fill-rule="nonzero"/></g><g clip-path="url(#d4d435fc94)"><path fill="#d8d8d8" d="M 726.46875 245.957031 L 713.589844 245.957031 L 713.589844 197.085938 L 726.46875 197.085938 L 726.46875 245.957031 " fill-opacity="1" fill-rule="nonzero"/></g><g clip-path="url(#38c1035088)"><path fill="#d8d8d8" d="M 750.003906 245.957031 L 737.125 245.957031 L 737.125 208.117188 L 750.003906 208.117188 L 750.003906 245.957031 " fill-opacity="1" fill-rule="nonzero"/></g><g clip-path="url(#fcd14baf07)"><path fill="#d8d8d8" d="M 773.761719 245.957031 L 760.882812 245.957031 L 760.882812 170.757812 L 773.761719 170.757812 L 773.761719 245.957031 " fill-opacity="1" fill-rule="nonzero"/></g><g clip-path="url(#a16ca91ea0)"><path fill="#d8d8d8" d="M 797.296875 245.957031 L 784.414062 245.957031 L 784.414062 151.738281 L 797.296875 151.738281 L 797.296875 245.957031 " fill-opacity="1" fill-rule="nonzero"/></g><g clip-path="url(#f3c6bb140e)"><path fill="#e4e4eb" d="M 778.15625 148.265625 L 764.253906 154.539062 L 742.75 192.195312 L 719.496094 183.910156 L 697.109375 208.988281 L 672.878906 194.957031 L 655.9375 206.570312 L 655.9375 210.9375 L 673.042969 199.210938 L 697.839844 213.574219 L 720.566406 188.117188 L 744.378906 196.601562 L 766.800781 157.339844 L 779.636719 151.550781 L 778.15625 148.265625 " fill-opacity="1" fill-rule="nonzero"/></g><g clip-path="url(#6c396a307b)"><path fill="#e4e4eb" d="M 776.90625 157.113281 L 778.105469 150.253906 L 772.980469 145.574219 L 783.269531 148.507812 L 776.90625 157.113281 " fill-opacity="1" fill-rule="nonzero"/></g><g clip-path="url(#61bc361f40)"><path fill="#f2f2f5" d="M 8.785156 158.195312 L 126.4375 158.195312 L 126.4375 187.117188 L 8.785156 187.117188 Z M 8.785156 158.195312 " fill-opacity="1" fill-rule="nonzero"/></g><g clip-path="url(#3c0727f9a2)"><path fill="#f2f2f5" d="M 8.785156 215.078125 L 126.4375 215.078125 L 126.4375 244 L 8.785156 244 Z M 8.785156 215.078125 " fill-opacity="1" fill-rule="nonzero"/></g><g clip-path="url(#38a19ec59c)"><path fill="#f2f2f5" d="M 8.785156 264.726562 L 126.4375 264.726562 L 126.4375 293.644531 L 8.785156 293.644531 Z M 8.785156 264.726562 " fill-opacity="1" fill-rule="nonzero"/></g><g clip-path="url(#c8803d28eb)"><path fill="#f2f2f5" d="M 8.785156 314.375 L 126.4375 314.375 L 126.4375 343.292969 L 8.785156 343.292969 Z M 8.785156 314.375 " fill-opacity="1" fill-rule="nonzero"/></g><g clip-path="url(#e106800373)"><path fill="#f2f2f5" d="M 8.785156 378.273438 L 126.4375 378.273438 L 126.4375 407.191406 L 8.785156 407.191406 Z M 8.785156 378.273438 " fill-opacity="1" fill-rule="nonzero"/></g><g clip-path="url(#35891f154b)"><path fill="#f2f2f5" d="M 8.785156 427.835938 L 126.4375 427.835938 L 126.4375 456.757812 L 8.785156 456.757812 Z M 8.785156 427.835938 " fill-opacity="1" fill-rule="nonzero"/></g><g clip-path="url(#c836fa8722)"><path fill="#e4e4eb" d="M 3.484375 493.746094 L 32.402344 493.746094 L 32.402344 522.664062 L 3.484375 522.664062 Z M 3.484375 493.746094 " fill-opacity="1" fill-rule="nonzero"/></g><g clip-path="url(#a47670d237)"><path fill="#f2f2f5" d="M 40.4375 493.746094 L 125.886719 493.746094 L 125.886719 522.664062 L 40.4375 522.664062 Z M 40.4375 493.746094 " fill-opacity="1" fill-rule="nonzero"/></g><g clip-path="url(#d755a86422)"><path fill="#e4e4eb" d="M 0.492188 31.832031 L 134.578125 31.832031 L 134.578125 80.46875 L 0.492188 80.46875 Z M 0.492188 31.832031 " fill-opacity="1" fill-rule="nonzero"/></g><g clip-path="url(#7aee4f80db)"><path fill="#e4e4eb" d="M 191.863281 279.074219 C 192.003906 223.765625 191.527344 168.460938 192.09375 113.167969 C 196.542969 113.34375 200.992188 113.34375 205.457031 113.308594 C 205.546875 160.78125 205.476562 208.25 205.492188 255.722656 C 220.292969 240.933594 235.132812 226.175781 249.863281 211.296875 C 246.28125 202.394531 250.429688 191.328125 259.363281 187.535156 C 268.792969 182.835938 280.667969 188.792969 283.914062 198.476562 C 295.4375 201.492188 307.03125 204.207031 318.554688 207.21875 C 321.742188 202.164062 326.796875 197.996094 332.945312 197.480469 C 339.523438 196.539062 345.691406 200.085938 349.875 204.925781 C 369.304688 191.644531 389.035156 178.769531 408.570312 165.609375 C 404.226562 154.988281 411.78125 141.972656 423.175781 140.679688 C 434.699219 138.726562 445.761719 150.097656 443.507812 161.566406 C 441.949219 172.882812 428.796875 180.117188 418.355469 175.398438 C 396.621094 190.046875 374.816406 204.605469 352.941406 219.039062 C 350.867188 225.492188 346.1875 231.503906 339.289062 233.046875 C 330.25 235.636719 320.589844 229.570312 317.558594 220.988281 C 306.019531 218.0625 294.457031 215.226562 282.917969 212.332031 C 278.46875 220.523438 268.183594 224.335938 259.445312 221.003906 C 244.679688 235.792969 229.894531 250.566406 215.128906 265.355469 C 300.394531 265.390625 385.660156 265.339844 470.925781 265.390625 C 470.960938 269.914062 470.960938 274.433594 470.925781 278.972656 C 377.90625 279.058594 284.875 278.898438 191.863281 279.074219 Z M 422.449219 155.335938 C 417.664062 159.417969 425.234375 166.632812 428.992188 161.664062 C 432.914062 157.710938 426.390625 151.308594 422.449219 155.335938 Z M 264.078125 200.34375 C 259.328125 203.375 264.277344 211.195312 269.0625 208.023438 C 274.414062 205.164062 269.011719 196.546875 264.078125 200.34375 Z M 331.835938 211.992188 C 327.3125 215.433594 333.113281 222.757812 337.488281 219.140625 C 342.699219 215.75 336.316406 207.789062 331.835938 211.992188 Z M 331.835938 211.992188 " fill-opacity="1" fill-rule="nonzero"/></g><path fill="#d8d8d8" d="M 307.320312 357.996094 C 302.707031 357.996094 298.121094 357.972656 293.578125 357.949219 C 290.160156 357.933594 286.742188 357.917969 283.328125 357.910156 C 280.84375 357.90625 278.367188 357.914062 275.898438 357.921875 C 267.003906 357.957031 257.808594 357.996094 248.664062 357.273438 C 248.011719 357.21875 247.019531 357.207031 245.875 357.195312 C 240.660156 357.136719 232.777344 357.046875 230.53125 353.304688 C 229.351562 351.335938 229.507812 348.070312 229.671875 344.609375 C 229.695312 344.074219 229.722656 343.539062 229.742188 343.011719 C 229.847656 340.183594 231.878906 337.832031 234.675781 337.300781 C 239.089844 336.457031 243.773438 336.375 248.296875 336.292969 C 250.117188 336.261719 251.835938 336.230469 253.503906 336.152344 C 259.480469 335.875 265.554688 335.742188 271.425781 335.613281 C 276.375 335.507812 281.492188 335.394531 286.519531 335.195312 C 304.289062 334.488281 322.136719 334.445312 337.246094 334.492188 C 340.515625 334.503906 343.84375 334.417969 347.0625 334.335938 C 350.125 334.257812 353.292969 334.175781 356.433594 334.175781 C 356.964844 334.175781 357.558594 334.152344 358.1875 334.128906 C 361.804688 334 366.753906 333.820312 368.929688 337.644531 C 370.34375 340.136719 370.816406 348.105469 369.980469 350.691406 C 368.957031 353.871094 366.734375 354.347656 364.160156 354.902344 L 363.554688 355.03125 C 356.679688 356.550781 349.320312 356.890625 342.203125 357.21875 C 341.273438 357.261719 340.351562 357.304688 339.441406 357.351562 C 328.796875 357.875 317.996094 357.996094 307.320312 357.996094 Z M 281.847656 355.359375 C 282.34375 355.359375 282.839844 355.363281 283.335938 355.363281 C 286.75 355.371094 290.167969 355.386719 293.589844 355.402344 C 308.609375 355.476562 324.136719 355.554688 339.316406 354.808594 C 340.230469 354.761719 341.152344 354.71875 342.082031 354.675781 C 349.09375 354.351562 356.34375 354.019531 363.007812 352.546875 L 363.625 352.410156 C 366.179688 351.863281 367.011719 351.605469 367.558594 349.90625 C 368.238281 347.808594 367.6875 340.605469 366.71875 338.902344 C 365.304688 336.421875 361.574219 336.554688 358.28125 336.675781 C 357.628906 336.699219 357.011719 336.722656 356.433594 336.722656 C 353.328125 336.722656 350.175781 336.800781 347.125 336.878906 C 343.890625 336.960938 340.535156 337.046875 337.238281 337.035156 C 322.152344 336.988281 304.339844 337.035156 286.621094 337.738281 C 281.570312 337.9375 276.441406 338.050781 271.480469 338.160156 C 265.625 338.285156 259.570312 338.417969 253.625 338.695312 C 251.917969 338.777344 250.183594 338.808594 248.34375 338.839844 C 243.921875 338.917969 239.351562 339 235.152344 339.800781 C 233.527344 340.109375 232.347656 341.46875 232.285156 343.105469 C 232.265625 343.644531 232.238281 344.1875 232.210938 344.730469 C 232.078125 347.523438 231.929688 350.6875 232.714844 351.996094 C 234.230469 354.515625 241.824219 354.601562 245.902344 354.648438 C 247.097656 354.664062 248.125 354.675781 248.867188 354.734375 C 257.90625 355.449219 267.046875 355.410156 275.890625 355.375 C 277.871094 355.371094 279.855469 355.359375 281.847656 355.359375 Z M 281.847656 355.359375 " fill-opacity="1" fill-rule="nonzero"/><path fill="#e4e4eb" d="M 283.304688 392.78125 C 281.023438 392.78125 278.75 392.75 276.515625 392.71875 L 274.335938 392.6875 C 270.558594 392.644531 266.789062 392.074219 263.140625 391.523438 C 259.9375 391.042969 256.625 390.542969 253.355469 390.410156 C 247.191406 390.15625 240.914062 390.148438 235.511719 390.164062 L 235.191406 390.164062 C 232.136719 390.175781 229.921875 390.183594 228.777344 385.824219 C 227.859375 382.328125 228.695312 379.195312 229.578125 375.875 C 229.972656 374.386719 230.382812 372.84375 230.660156 371.191406 C 231.148438 368.25 233.675781 366.113281 236.664062 366.113281 C 268.496094 366.125 306.121094 366.246094 343.847656 367.066406 C 345.054688 367.089844 346.667969 366.980469 348.378906 366.863281 C 354.949219 366.410156 363.949219 365.789062 366.457031 371.589844 C 367.949219 375.046875 368.703125 383.078125 367.429688 386.558594 C 366.347656 389.507812 364.359375 389.597656 362.054688 389.707031 C 361.691406 389.722656 361.292969 389.742188 360.863281 389.769531 C 356.800781 390.050781 352.679688 390.03125 348.695312 390.015625 C 344.976562 390 341.125 389.984375 337.367188 390.210938 C 330.855469 390.605469 323.753906 390.792969 315.664062 390.792969 C 315.605469 390.792969 315.542969 390.792969 315.488281 390.792969 C 310.597656 390.792969 305.703125 391.289062 300.96875 391.765625 C 297.039062 392.160156 292.976562 392.566406 288.90625 392.699219 C 287.050781 392.757812 285.175781 392.78125 283.304688 392.78125 Z M 238.355469 387.613281 C 243.082031 387.613281 248.304688 387.652344 253.460938 387.863281 C 256.867188 388.003906 260.25 388.515625 263.519531 389.007812 C 267.082031 389.542969 270.765625 390.097656 274.367188 390.144531 L 276.550781 390.171875 C 280.585938 390.226562 284.757812 390.285156 288.824219 390.15625 C 292.808594 390.027344 296.828125 389.621094 300.714844 389.230469 C 305.511719 388.75 310.472656 388.25 315.488281 388.25 C 315.546875 388.246094 315.605469 388.25 315.664062 388.25 C 323.703125 388.25 330.753906 388.058594 337.214844 387.667969 C 341.054688 387.4375 344.945312 387.453125 348.707031 387.46875 C 352.648438 387.488281 356.722656 387.503906 360.691406 387.230469 C 361.140625 387.203125 361.554688 387.183594 361.9375 387.164062 C 364.246094 387.058594 364.5625 386.992188 365.039062 385.683594 C 366.070312 382.878906 365.371094 375.492188 364.121094 372.605469 C 362.328125 368.457031 354.367188 369.003906 348.554688 369.402344 C 346.785156 369.527344 345.109375 369.640625 343.792969 369.613281 C 306.089844 368.792969 268.480469 368.671875 236.664062 368.660156 C 234.921875 368.660156 233.453125 369.902344 233.167969 371.609375 C 232.875 373.386719 232.449219 374.984375 232.035156 376.53125 C 231.207031 379.644531 230.492188 382.332031 231.238281 385.179688 C 231.882812 387.632812 232.265625 387.632812 235.179688 387.617188 L 235.507812 387.617188 C 236.429688 387.613281 237.382812 387.613281 238.355469 387.613281 Z M 238.355469 387.613281 " fill-opacity="1" fill-rule="nonzero"/><path fill="#d8d8d8" d="M 286.710938 430.179688 C 277.785156 430.179688 268.796875 430.015625 260 429.355469 C 257.257812 429.148438 254.457031 429 251.75 428.855469 C 249.371094 428.730469 246.914062 428.601562 244.492188 428.433594 C 243.511719 428.363281 242.292969 428.417969 241.003906 428.480469 C 238.554688 428.59375 236.019531 428.707031 234.085938 428.058594 C 228.367188 426.140625 226.683594 418.589844 229.21875 406.21875 C 229.785156 403.46875 232.238281 401.515625 235.019531 401.578125 C 241.945312 401.71875 248.972656 402.1875 255.769531 402.640625 C 263.960938 403.183594 272.425781 403.746094 280.761719 403.746094 C 296 403.746094 316.109375 403.847656 336.523438 404.625 C 341.414062 404.808594 346.417969 404.65625 351.253906 404.503906 C 354.832031 404.394531 358.53125 404.277344 362.152344 404.304688 L 362.878906 404.3125 L 363.242188 404.9375 C 364.542969 407.160156 364.699219 409.988281 364.839844 412.484375 C 364.878906 413.175781 364.917969 413.828125 364.976562 414.445312 C 365.019531 414.914062 365.101562 415.488281 365.1875 416.101562 C 365.539062 418.5625 365.976562 421.628906 364.929688 423.644531 C 362.808594 427.746094 356.195312 428.183594 351.367188 428.503906 C 350.253906 428.578125 349.292969 428.640625 348.5625 428.742188 C 338.507812 430.109375 328.003906 430.066406 317.84375 430.023438 C 315.40625 430.015625 312.980469 430.007812 310.574219 430.015625 C 307.171875 430.027344 303.75 430.0625 300.3125 430.09375 C 295.820312 430.136719 291.273438 430.179688 286.710938 430.179688 Z M 243.460938 425.855469 C 243.878906 425.855469 244.28125 425.863281 244.667969 425.890625 C 247.070312 426.058594 249.515625 426.1875 251.882812 426.3125 C 254.605469 426.457031 257.417969 426.605469 260.191406 426.816406 C 273.375 427.804688 287.058594 427.671875 300.289062 427.546875 C 303.730469 427.515625 307.15625 427.480469 310.5625 427.46875 C 312.976562 427.457031 315.410156 427.46875 317.851562 427.476562 C 327.925781 427.519531 338.339844 427.5625 348.21875 426.214844 C 349.035156 426.105469 350.039062 426.039062 351.199219 425.960938 C 355.183594 425.699219 361.207031 425.296875 362.671875 422.472656 C 363.34375 421.179688 362.953125 418.449219 362.667969 416.457031 C 362.578125 415.816406 362.492188 415.210938 362.441406 414.683594 C 362.378906 414.019531 362.339844 413.34375 362.300781 412.625 C 362.1875 410.582031 362.066406 408.476562 361.363281 406.847656 C 358.027344 406.84375 354.628906 406.949219 351.332031 407.050781 C 346.453125 407.199219 341.40625 407.355469 336.425781 407.167969 C 316.054688 406.390625 295.976562 406.292969 280.761719 406.289062 C 272.34375 406.289062 263.832031 405.726562 255.601562 405.179688 C 248.832031 404.730469 241.835938 404.265625 234.964844 404.121094 C 234.941406 404.121094 234.921875 404.121094 234.898438 404.121094 C 233.359375 404.121094 232.023438 405.207031 231.710938 406.730469 C 230.433594 412.964844 229.148438 423.71875 234.894531 425.644531 C 236.378906 426.144531 238.773438 426.03125 240.886719 425.933594 C 241.785156 425.894531 242.652344 425.855469 243.460938 425.855469 Z M 243.460938 425.855469 " fill-opacity="1" fill-rule="nonzero"/><path fill="#e4e4eb" d="M 320.195312 462.824219 C 308.507812 462.824219 296.84375 462.351562 285.378906 461.890625 C 275.9375 461.511719 266.175781 461.117188 256.640625 460.996094 C 250.082031 460.917969 242.1875 459.835938 235.515625 458.109375 C 231.183594 456.988281 231.117188 455.054688 230.996094 451.546875 L 230.992188 451.449219 C 230.875 448.175781 231.199219 445.085938 233.15625 440.640625 C 233.96875 438.796875 235.714844 437.515625 237.714844 437.300781 C 248.800781 436.105469 260.320312 436.402344 271.457031 436.691406 C 276.304688 436.816406 281.316406 436.949219 286.164062 436.949219 C 288.125 436.949219 290.085938 436.953125 292.046875 436.960938 C 299.101562 436.988281 306.394531 437.011719 313.539062 436.703125 C 320.203125 436.414062 326.960938 436.585938 333.492188 436.746094 C 337.414062 436.847656 341.46875 436.945312 345.445312 436.949219 C 345.445312 436.949219 345.449219 436.949219 345.449219 436.949219 C 346.289062 436.949219 347.71875 436.84375 349.375 436.726562 C 359.699219 435.984375 369.113281 435.699219 370.84375 440.246094 C 372.042969 443.390625 371.109375 450.074219 370.652344 452.382812 C 369.222656 459.558594 360.097656 460.476562 354.058594 461.078125 C 353.507812 461.136719 352.976562 461.1875 352.476562 461.242188 C 341.792969 462.421875 330.984375 462.824219 320.195312 462.824219 Z M 235.484375 441.667969 C 233.71875 445.683594 233.425781 448.355469 233.53125 451.363281 L 233.535156 451.457031 C 233.652344 454.800781 233.660156 455 236.152344 455.644531 C 242.636719 457.324219 250.308594 458.371094 256.671875 458.453125 C 266.242188 458.570312 276.023438 458.964844 285.480469 459.347656 C 307.433594 460.230469 330.128906 461.148438 352.199219 458.714844 C 352.707031 458.65625 353.246094 458.601562 353.804688 458.546875 C 359.414062 457.984375 367.097656 457.214844 368.15625 451.886719 C 368.789062 448.707031 369.25 443.207031 368.46875 441.152344 C 367.265625 437.996094 354.855469 438.886719 349.554688 439.265625 C 347.78125 439.394531 346.378906 439.496094 345.449219 439.496094 C 345.445312 439.496094 345.445312 439.496094 345.445312 439.496094 C 341.4375 439.492188 337.367188 439.390625 333.429688 439.292969 C 326.9375 439.132812 320.226562 438.964844 313.648438 439.246094 C 306.445312 439.558594 299.121094 439.535156 292.039062 439.507812 C 290.082031 439.5 288.121094 439.496094 286.164062 439.496094 C 281.285156 439.496094 276.257812 439.363281 271.394531 439.238281 C 260.335938 438.953125 248.90625 438.65625 237.988281 439.832031 C 236.890625 439.949219 235.929688 440.652344 235.484375 441.667969 Z M 235.484375 441.667969 " fill-opacity="1" fill-rule="nonzero"/><g clip-path="url(#9ca6a3b269)"><path fill="#d8d8d8" d="M 311.054688 493.785156 C 308.097656 493.785156 305.148438 493.769531 302.226562 493.753906 C 299.265625 493.734375 296.304688 493.71875 293.351562 493.71875 L 290.449219 493.722656 C 280.484375 493.730469 270.175781 493.742188 260.054688 492.617188 C 254.4375 491.992188 249.351562 491.476562 243.996094 491.476562 C 243.609375 491.476562 242.960938 491.542969 242.277344 491.613281 C 239.847656 491.867188 236.824219 492.183594 235.234375 490.890625 C 232.878906 488.972656 232.738281 484.105469 233.296875 476.351562 C 233.601562 472.109375 236.628906 468.796875 240.339844 468.652344 C 260.132812 467.875 280.242188 468.207031 299.6875 468.53125 C 310.265625 468.707031 321.203125 468.886719 331.960938 468.886719 L 356.984375 468.886719 C 357.558594 468.886719 358.140625 468.855469 358.707031 468.828125 C 361.476562 468.683594 364.613281 468.519531 366.636719 472.226562 C 368.34375 475.363281 368.671875 480.859375 368.238281 484.917969 C 368.226562 485.019531 368.292969 485.230469 368.355469 485.429688 C 368.53125 485.996094 368.824219 486.945312 368.222656 487.984375 C 367.25 489.644531 364.257812 490.257812 361.457031 490.636719 L 361.347656 490.652344 C 357.515625 491.171875 353.59375 491.488281 349.804688 491.792969 C 347.203125 492 344.511719 492.214844 341.890625 492.496094 C 331.675781 493.585938 321.285156 493.785156 311.054688 493.785156 Z M 293.351562 490.949219 C 296.3125 490.949219 299.277344 490.96875 302.242188 490.984375 C 315.191406 491.058594 328.582031 491.132812 341.597656 489.742188 C 344.253906 489.457031 346.960938 489.242188 349.582031 489.03125 C 353.335938 488.730469 357.21875 488.417969 360.972656 487.90625 L 361.085938 487.890625 C 364.804688 487.386719 365.640625 486.785156 365.8125 486.605469 C 365.796875 486.519531 365.746094 486.371094 365.710938 486.253906 C 365.585938 485.847656 365.414062 485.296875 365.484375 484.625 C 365.859375 481.109375 365.621094 476.148438 364.203125 473.550781 C 363.070312 471.464844 361.664062 471.445312 358.847656 471.589844 C 358.25 471.621094 357.628906 471.65625 356.984375 471.65625 L 331.957031 471.65625 C 321.179688 471.65625 310.230469 471.472656 299.640625 471.296875 C 280.230469 470.976562 260.164062 470.640625 240.449219 471.417969 C 238.148438 471.507812 236.261719 473.714844 236.058594 476.546875 C 235.824219 479.78125 235.28125 487.355469 236.980469 488.742188 C 237.675781 489.308594 240.589844 489.007812 241.988281 488.859375 C 242.78125 488.777344 243.464844 488.707031 243.996094 488.707031 C 249.492188 488.707031 254.660156 489.230469 260.359375 489.863281 C 270.324219 490.972656 280.554688 490.964844 290.445312 490.949219 Z M 293.351562 490.949219 " fill-opacity="1" fill-rule="nonzero"/></g><path fill="#d8d8d8" d="M 206.5 357.214844 C 204.304688 357.214844 202.199219 356.945312 200.027344 356.667969 L 199.078125 356.546875 C 197.253906 356.320312 195.78125 354.886719 195.5 353.066406 L 195.417969 352.542969 C 194.820312 348.714844 193.914062 342.933594 196.304688 340.234375 C 197.144531 339.285156 198.316406 338.808594 199.699219 338.804688 C 204.621094 337.824219 209.691406 337.53125 214.367188 337.957031 C 219.714844 338.445312 219.804688 343.742188 219.867188 347.246094 C 219.878906 347.96875 219.894531 348.65625 219.9375 349.277344 C 219.960938 349.597656 220.007812 349.914062 220.050781 350.21875 C 220.226562 351.414062 220.464844 353.050781 218.777344 354.359375 C 217.488281 355.363281 214.9375 355.960938 212.214844 356.535156 C 211.953125 356.589844 211.714844 356.640625 211.503906 356.6875 C 209.746094 357.070312 208.097656 357.214844 206.5 357.214844 Z M 199.652344 341.574219 C 198.917969 341.574219 198.585938 341.835938 198.375 342.070312 C 196.851562 343.792969 197.699219 349.207031 198.152344 352.113281 L 198.234375 352.644531 C 198.328125 353.25 198.816406 353.722656 199.425781 353.800781 L 200.378906 353.921875 C 203.890625 354.371094 207.207031 354.792969 210.910156 353.980469 C 211.128906 353.933594 211.375 353.882812 211.644531 353.824219 C 213.121094 353.511719 216.1875 352.867188 217.082031 352.171875 C 217.449219 351.886719 217.484375 351.78125 217.316406 350.621094 C 217.265625 350.28125 217.210938 349.898438 217.179688 349.476562 C 217.128906 348.777344 217.113281 348.058594 217.101562 347.292969 C 217.027344 343 216.707031 340.953125 214.113281 340.714844 C 209.714844 340.3125 204.738281 340.609375 200.09375 341.546875 L 199.933594 341.578125 L 199.769531 341.574219 C 199.730469 341.574219 199.691406 341.574219 199.652344 341.574219 Z M 199.652344 341.574219 " fill-opacity="1" fill-rule="nonzero"/><path fill="#e4e4eb" d="M 207.214844 388.980469 C 204.171875 388.980469 201.136719 388.648438 198.199219 387.738281 C 194.089844 386.464844 193.574219 384.011719 193.300781 380.683594 C 193.257812 380.203125 193.191406 379.683594 193.121094 379.132812 C 192.738281 376.152344 192.214844 372.066406 195.347656 368.121094 C 195.929688 367.390625 196.765625 366.859375 197.707031 366.621094 C 203.289062 365.21875 210.335938 365.625 215.996094 365.953125 L 216.707031 365.992188 C 222.265625 366.3125 222.449219 371.183594 222.582031 374.742188 C 222.609375 375.464844 222.636719 376.144531 222.695312 376.789062 C 222.742188 377.300781 222.816406 377.839844 222.894531 378.40625 C 223.179688 380.492188 223.503906 382.859375 222.621094 385 C 221.554688 387.597656 219.367188 387.855469 217.441406 388.082031 C 217.148438 388.113281 216.847656 388.148438 216.539062 388.195312 C 213.492188 388.628906 210.351562 388.980469 207.214844 388.980469 Z M 197.515625 369.84375 C 195.109375 372.875 195.511719 376.011719 195.867188 378.78125 C 195.941406 379.363281 196.011719 379.914062 196.058594 380.453125 C 196.3125 383.550781 196.617188 384.351562 199.019531 385.09375 C 204.460938 386.78125 210.46875 386.265625 216.148438 385.453125 C 216.480469 385.40625 216.804688 385.367188 217.117188 385.332031 C 218.972656 385.113281 219.636719 384.984375 220.066406 383.945312 C 220.660156 382.492188 220.402344 380.609375 220.152344 378.785156 C 220.074219 378.210938 219.996094 377.617188 219.941406 377.046875 C 219.875 376.328125 219.847656 375.574219 219.820312 374.847656 C 219.660156 370.644531 219.320312 368.917969 216.546875 368.757812 L 215.835938 368.71875 C 210.363281 368.402344 203.554688 368.007812 198.382812 369.308594 C 198.027344 369.394531 197.71875 369.585938 197.515625 369.84375 Z M 197.515625 369.84375 " fill-opacity="1" fill-rule="nonzero"/><path fill="#d8d8d8" d="M 204.597656 427.574219 C 201.40625 427.574219 198.277344 427.003906 195.945312 424.921875 C 191.511719 420.96875 192.308594 412.890625 195.386719 406.953125 C 196.003906 405.757812 197.089844 404.925781 198.367188 404.664062 C 200.757812 404.175781 203.601562 404.253906 206.109375 404.324219 C 206.964844 404.347656 207.777344 404.371094 208.527344 404.371094 C 209.304688 404.371094 210.144531 404.320312 211.039062 404.269531 C 212.980469 404.152344 214.992188 404.03125 216.828125 404.394531 C 222.28125 405.472656 222.273438 413.210938 222.269531 416.519531 C 222.269531 416.988281 222.355469 417.65625 222.445312 418.359375 C 222.648438 419.925781 222.855469 421.550781 222.414062 422.777344 C 221.191406 426.179688 216.089844 426.589844 213.640625 426.789062 C 212.796875 426.855469 211.863281 426.96875 210.875 427.085938 C 208.902344 427.320312 206.738281 427.574219 204.597656 427.574219 Z M 203.273438 407.042969 C 201.738281 407.042969 200.214844 407.113281 198.921875 407.375 C 198.46875 407.46875 198.074219 407.777344 197.84375 408.226562 C 195.320312 413.09375 194.441406 419.875 197.785156 422.855469 C 200.75 425.5 206.183594 424.855469 210.550781 424.335938 C 211.5625 424.214844 212.519531 424.101562 213.417969 424.027344 C 214.847656 423.914062 219.191406 423.5625 219.8125 421.839844 C 220.027344 421.238281 219.839844 419.78125 219.703125 418.714844 C 219.601562 417.917969 219.503906 417.167969 219.503906 416.515625 C 219.507812 412.75 219.179688 407.679688 216.292969 407.113281 C 214.804688 406.820312 212.972656 406.925781 211.199219 407.03125 C 210.308594 407.085938 209.386719 407.140625 208.527344 407.140625 C 207.738281 407.140625 206.910156 407.117188 206.03125 407.09375 C 205.140625 407.066406 204.203125 407.042969 203.273438 407.042969 Z M 203.273438 407.042969 " fill-opacity="1" fill-rule="nonzero"/><path fill="#e4e4eb" d="M 206.667969 459.71875 C 203.433594 459.71875 199.761719 459.421875 197.316406 457.875 C 192.96875 455.125 192.613281 447.429688 194.78125 441.882812 C 195.703125 439.523438 198.007812 438.027344 200.542969 438.167969 C 202.792969 438.289062 205.144531 438.1875 207.417969 438.085938 C 210.671875 437.941406 214.035156 437.792969 217.335938 438.277344 L 217.617188 438.316406 C 219.242188 438.550781 221.46875 438.871094 222.761719 440.023438 C 225.59375 442.558594 225.390625 451.324219 223.988281 453.867188 C 221.617188 458.144531 214.3125 459.503906 210.371094 459.632812 L 209.847656 459.652344 C 208.890625 459.683594 207.804688 459.71875 206.667969 459.71875 Z M 200.222656 440.929688 C 198.960938 440.929688 197.824219 441.699219 197.359375 442.890625 C 195.398438 447.902344 196.070312 453.8125 198.796875 455.535156 C 201.378906 457.167969 206.417969 456.996094 209.753906 456.882812 L 210.277344 456.867188 C 213.777344 456.75 219.933594 455.472656 221.566406 452.523438 C 222.65625 450.554688 222.4375 443.449219 220.917969 442.089844 C 220.246094 441.492188 218.28125 441.210938 217.222656 441.058594 L 216.933594 441.015625 C 213.894531 440.570312 210.808594 440.707031 207.542969 440.851562 C 205.199219 440.957031 202.78125 441.0625 200.390625 440.933594 C 200.335938 440.929688 200.277344 440.929688 200.222656 440.929688 Z M 200.222656 440.929688 " fill-opacity="1" fill-rule="nonzero"/><g clip-path="url(#4b21f00464)"><path fill="#d8d8d8" d="M 200.601562 493.632812 C 199.671875 493.632812 198.78125 493.546875 198.019531 493.292969 C 195.152344 492.328125 194.351562 489.21875 193.648438 486.476562 C 193.539062 486.058594 193.433594 485.648438 193.320312 485.246094 C 191.878906 480.117188 192.996094 476.859375 194.1875 475.03125 C 195.523438 472.988281 197.640625 471.671875 200.15625 471.320312 L 200.292969 471.300781 L 200.433594 471.308594 C 202.480469 471.433594 204.527344 471.316406 206.695312 471.1875 C 209.214844 471.039062 211.816406 470.886719 214.429688 471.152344 C 214.769531 471.1875 215.1875 471.214844 215.652344 471.242188 C 218.230469 471.414062 220.46875 471.625 221.792969 472.519531 C 224.871094 474.601562 228.132812 484.832031 226.160156 488.253906 C 224.875 490.484375 221.394531 491.101562 217.632812 491.582031 C 217.132812 491.644531 216.691406 491.703125 216.351562 491.761719 L 215.386719 491.925781 C 212.058594 492.5 208.617188 493.097656 205.238281 493.292969 C 204.828125 493.316406 204.324219 493.367188 203.792969 493.421875 C 202.761719 493.523438 201.652344 493.632812 200.601562 493.632812 Z M 200.410156 474.082031 C 198.757812 474.347656 197.371094 475.21875 196.503906 476.546875 C 195.242188 478.476562 195.0625 481.226562 195.984375 484.496094 C 196.101562 484.917969 196.214844 485.347656 196.324219 485.785156 C 196.882812 487.949219 197.457031 490.183594 198.898438 490.667969 C 199.957031 491.019531 202.015625 490.816406 203.515625 490.664062 C 204.078125 490.609375 204.609375 490.554688 205.078125 490.527344 C 208.300781 490.339844 211.664062 489.757812 214.914062 489.195312 L 215.878906 489.03125 C 216.265625 488.964844 216.738281 488.902344 217.28125 488.835938 C 219.007812 488.613281 223.054688 488.09375 223.761719 486.871094 C 224.984375 484.75 222.167969 476.113281 220.242188 474.8125 C 219.429688 474.265625 216.855469 474.097656 215.472656 474.007812 C 214.96875 473.972656 214.515625 473.945312 214.148438 473.90625 C 211.757812 473.660156 209.265625 473.808594 206.859375 473.949219 C 204.753906 474.074219 202.578125 474.203125 200.410156 474.082031 Z M 200.410156 474.082031 " fill-opacity="1" fill-rule="nonzero"/></g></svg>