<svg xmlns="http://www.w3.org/2000/svg" xmlns:xlink="http://www.w3.org/1999/xlink" width="68" zoomAndPan="magnify" viewBox="0 0 50.879997 50.999998" height="68" preserveAspectRatio="xMidYMid meet" version="1.0"><defs><filter x="0%" y="0%" width="100%" height="100%" id="ff6c2f4b26"><feColorMatrix values="0 0 0 0 1 0 0 0 0 1 0 0 0 0 1 0 0 0 1 0" color-interpolation-filters="sRGB"/></filter><mask id="0e3c353aed"><g filter="url(#ff6c2f4b26)"><rect x="-5.088" width="61.055996" fill="#000000" y="-5.1" height="61.199998" fill-opacity="0.298"/></g></mask><clipPath id="fb750d24c8"><path d="M 0.226562 1 L 32.308594 1 L 32.308594 43.59375 L 0.226562 43.59375 Z M 0.226562 1 " clip-rule="nonzero"/></clipPath><clipPath id="117383b53f"><rect x="0" width="33" y="0" height="44"/></clipPath></defs><g mask="url(#0e3c353aed)"><g transform="matrix(1, 0, 0, 1, 6, 1)"><g clip-path="url(#117383b53f)"><g clip-path="url(#fb750d24c8)"><path fill="#8f8f8f" d="M 4.296875 1.179688 L 18.882812 1.179688 C 19.632812 1.179688 20.359375 1.445312 20.933594 1.933594 L 31.035156 10.472656 C 31.75 11.078125 32.160156 11.964844 32.160156 12.902344 L 32.160156 39.515625 C 32.160156 43.3125 32.117188 43.578125 28.222656 43.578125 L 4.296875 43.578125 C 0.402344 43.578125 0.359375 43.3125 0.359375 39.515625 L 0.359375 5.242188 C 0.359375 1.449219 0.402344 1.179688 4.296875 1.179688 Z M 8.839844 26.621094 C 8.839844 25.449219 9.789062 24.5 10.960938 24.5 L 25.800781 24.5 C 26.972656 24.5 27.921875 25.449219 27.921875 26.621094 C 27.921875 27.789062 26.972656 28.738281 25.800781 28.738281 L 10.960938 28.738281 C 9.789062 28.738281 8.839844 27.789062 8.839844 26.621094 Z M 10.960938 32.980469 C 9.789062 32.980469 8.839844 33.929688 8.839844 35.101562 C 8.839844 36.269531 9.789062 37.21875 10.960938 37.21875 L 17.320312 37.21875 C 18.492188 37.21875 19.441406 36.269531 19.441406 35.101562 C 19.441406 33.929688 18.492188 32.980469 17.320312 32.980469 Z M 10.960938 32.980469 " fill-opacity="1" fill-rule="evenodd"/></g></g></g></g><path fill="#8f8f8f" d="M 14.539062 6.421875 L 31.242188 6.421875 C 31.992188 6.421875 32.722656 6.6875 33.292969 7.171875 L 43.394531 15.714844 C 44.109375 16.316406 44.519531 17.207031 44.519531 18.140625 L 44.519531 44.757812 C 44.519531 48.550781 44.476562 48.820312 40.582031 48.820312 L 14.539062 48.820312 C 10.644531 48.820312 10.601562 48.550781 10.601562 44.757812 L 10.601562 10.484375 C 10.601562 6.6875 10.644531 6.421875 14.539062 6.421875 Z M 14.839844 27.621094 C 14.839844 26.449219 15.789062 25.5 16.960938 25.5 L 31.800781 25.5 C 32.972656 25.5 33.921875 26.449219 33.921875 27.621094 C 33.921875 28.789062 32.972656 29.738281 31.800781 29.738281 L 16.960938 29.738281 C 15.789062 29.738281 14.839844 28.789062 14.839844 27.621094 Z M 16.960938 33.980469 C 15.789062 33.980469 14.839844 34.929688 14.839844 36.101562 C 14.839844 37.269531 15.789062 38.21875 16.960938 38.21875 L 23.320312 38.21875 C 24.492188 38.21875 25.441406 37.269531 25.441406 36.101562 C 25.441406 34.929688 24.492188 33.980469 23.320312 33.980469 Z M 16.960938 33.980469 " fill-opacity="1" fill-rule="evenodd"/></svg>