<svg xmlns="http://www.w3.org/2000/svg" xmlns:xlink="http://www.w3.org/1999/xlink" width="68" zoomAndPan="magnify" viewBox="0 0 50.879997 50.999998" height="68" preserveAspectRatio="xMidYMid meet" version="1.0"><defs><filter x="0%" y="0%" width="100%" height="100%" id="2ede15a7d2"><feColorMatrix values="0 0 0 0 1 0 0 0 0 1 0 0 0 0 1 0 0 0 1 0" color-interpolation-filters="sRGB"/></filter><mask id="3d3e88c79f"><g filter="url(#2ede15a7d2)"><rect x="-5.088" width="61.055996" fill="#000000" y="-5.1" height="61.199998" fill-opacity="0.298"/></g></mask><clipPath id="669ae212e3"><path d="M 1 0.128906 L 28 0.128906 L 28 42 L 1 42 Z M 1 0.128906 " clip-rule="nonzero"/></clipPath><clipPath id="fbe6d95d55"><rect x="0" width="29" y="0" height="43"/></clipPath></defs><path fill="#8f8f8f" d="M 33.070312 11.933594 L 44.308594 23.167969 C 45.15625 24.015625 45.15625 25.289062 44.308594 26.136719 L 37.3125 33.132812 L 24.59375 20.410156 Z M 4.875 26.136719 L 16.113281 37.371094 L 24.59375 28.890625 L 11.871094 16.171875 L 4.875 23.167969 C 4.027344 24.015625 4.027344 25.289062 4.875 26.136719 Z M 4.875 26.136719 " fill-opacity="1" fill-rule="nonzero"/><g mask="url(#3d3e88c79f)"><g transform="matrix(1, 0, 0, 1, 10, 4)"><g clip-path="url(#fbe6d95d55)"><g clip-path="url(#669ae212e3)"><path fill="#8f8f8f" d="M 27.3125 29.132812 L 16.074219 40.367188 C 15.226562 41.214844 13.957031 41.214844 13.109375 40.367188 L 6.113281 33.371094 L 18.832031 20.652344 Z M 13.109375 0.9375 L 1.871094 12.171875 L 10.351562 20.652344 L 23.070312 7.933594 L 16.074219 0.9375 C 15.226562 0.0898438 13.957031 0.0898438 13.109375 0.9375 Z M 13.109375 0.9375 " fill-opacity="1" fill-rule="nonzero"/></g></g></g></g></svg>