<svg xmlns="http://www.w3.org/2000/svg" xmlns:xlink="http://www.w3.org/1999/xlink" width="68" zoomAndPan="magnify" viewBox="0 0 50.879997 50.999998" height="68" preserveAspectRatio="xMidYMid meet" version="1.0"><defs><filter x="0%" y="0%" width="100%" height="100%" id="113801bccd"><feColorMatrix values="0 0 0 0 1 0 0 0 0 1 0 0 0 0 1 0 0 0 1 0" color-interpolation-filters="sRGB"/></filter><mask id="bcde9de30e"><g filter="url(#113801bccd)"><rect x="-5.088" width="61.055996" fill="#000000" y="-5.1" height="61.199998" fill-opacity="0.298"/></g></mask><clipPath id="f11aa63764"><path d="M 1 0.59375 L 22.464844 0.59375 L 22.464844 32.679688 L 1 32.679688 Z M 1 0.59375 " clip-rule="nonzero"/></clipPath><clipPath id="9afd582aa9"><rect x="0" width="23" y="0" height="33"/></clipPath></defs><path fill="#8f8f8f" d="M 31.800781 41.449219 C 31.800781 43.023438 33.839844 43.640625 34.710938 42.332031 L 47.113281 23.730469 C 47.816406 22.675781 47.058594 21.261719 45.789062 21.261719 L 36.039062 21.261719 L 36.039062 9.550781 C 36.039062 7.976562 34 7.359375 33.128906 8.667969 L 20.726562 27.269531 C 20.023438 28.324219 20.78125 29.738281 22.050781 29.738281 L 31.800781 29.738281 Z M 31.800781 41.449219 " fill-opacity="1" fill-rule="evenodd"/><g mask="url(#bcde9de30e)"><g transform="matrix(1, 0, 0, 1, 1, 10)"><g clip-path="url(#9afd582aa9)"><g clip-path="url(#f11aa63764)"><path fill="#8f8f8f" d="M 5.359375 3.839844 C 5.359375 2.082031 6.785156 0.660156 8.539062 0.660156 L 19.140625 0.660156 C 20.894531 0.660156 22.320312 2.082031 22.320312 3.839844 C 22.320312 5.597656 20.894531 7.019531 19.140625 7.019531 L 8.539062 7.019531 C 6.785156 7.019531 5.359375 5.597656 5.359375 3.839844 Z M 5.359375 29.28125 C 5.359375 27.523438 6.785156 26.101562 8.539062 26.101562 L 19.140625 26.101562 C 20.894531 26.101562 22.320312 27.523438 22.320312 29.28125 C 22.320312 31.035156 20.894531 32.460938 19.140625 32.460938 L 8.539062 32.460938 C 6.785156 32.460938 5.359375 31.035156 5.359375 29.28125 Z M 4.300781 13.378906 C 2.542969 13.378906 1.121094 14.804688 1.121094 16.558594 C 1.121094 18.316406 2.542969 19.738281 4.300781 19.738281 L 12.78125 19.738281 C 14.535156 19.738281 15.960938 18.316406 15.960938 16.558594 C 15.960938 14.804688 14.535156 13.378906 12.78125 13.378906 Z M 4.300781 13.378906 " fill-opacity="1" fill-rule="evenodd"/></g></g></g></g></svg>